<svg width="20" height="20" viewBox="0 0 20 20" fill="none" xmlns="http://www.w3.org/2000/svg">
<path d="M5 0C4.6055 0 4.28571 0.319796 4.28571 0.714299V2.14286H5.71426V0.714299C5.71426 0.319796 5.39447 0 5 0Z" fill="#CFCFDC"/>
<path d="M15 0C14.6055 0 14.2857 0.319796 14.2857 0.714299V2.14286H15.7143V0.714299C15.7143 0.319796 15.3945 0 15 0Z" fill="#CFCFDC"/>
<path d="M17.8571 2.14285H15.7143V5.00001C15.7143 5.39451 15.3945 5.71431 15 5.71431C14.6055 5.71431 14.2857 5.39451 14.2857 5.00001V2.14285H5.71427V5.00001C5.71427 5.39451 5.39447 5.71431 4.99997 5.71431C4.60547 5.71431 4.28567 5.39451 4.28567 5.00001V2.14285H2.14286C0.959388 2.14285 0 3.10224 0 4.28571V17.8571C0 19.0406 0.959388 20 2.14286 20H17.8571C19.0406 20 20 19.0406 20 17.8571V4.28571C20 3.10224 19.0406 2.14285 17.8571 2.14285ZM18.5714 17.8571C18.5714 18.2516 18.2516 18.5714 17.8571 18.5714H2.14286C1.74835 18.5714 1.42856 18.2516 1.42856 17.8571V8.57142H18.5714V17.8571Z" fill="#CFCFDC"/>
<path d="M5.71427 9.99998H4.28571C3.89121 9.99998 3.57141 10.3198 3.57141 10.7143C3.57141 11.1088 3.89121 11.4286 4.28571 11.4286H5.71427C6.10877 11.4286 6.42857 11.1088 6.42857 10.7143C6.42857 10.3198 6.10877 9.99998 5.71427 9.99998Z" fill="#CFCFDC"/>
<path d="M10.7143 9.99998H9.28571C8.89121 9.99998 8.57141 10.3198 8.57141 10.7143C8.57141 11.1088 8.89121 11.4286 9.28571 11.4286H10.7143C11.1088 11.4286 11.4286 11.1088 11.4286 10.7143C11.4286 10.3198 11.1088 9.99998 10.7143 9.99998Z" fill="#CFCFDC"/>
<path d="M15.7143 9.99998H14.2857C13.8912 9.99998 13.5714 10.3198 13.5714 10.7143C13.5714 11.1088 13.8912 11.4286 14.2857 11.4286H15.7143C16.1088 11.4286 16.4286 11.1088 16.4286 10.7143C16.4286 10.3198 16.1087 9.99998 15.7143 9.99998Z" fill="#CFCFDC"/>
<path d="M5.71427 12.8571H4.28571C3.89121 12.8571 3.57141 13.1769 3.57141 13.5714C3.57141 13.9659 3.89121 14.2857 4.28571 14.2857H5.71427C6.10877 14.2857 6.42857 13.9659 6.42857 13.5714C6.42857 13.1769 6.10877 12.8571 5.71427 12.8571Z" fill="#CFCFDC"/>
<path d="M10.7143 12.8571H9.28571C8.89121 12.8571 8.57141 13.1769 8.57141 13.5714C8.57141 13.9659 8.89121 14.2857 9.28571 14.2857H10.7143C11.1088 14.2857 11.4286 13.9659 11.4286 13.5714C11.4286 13.1769 11.1088 12.8571 10.7143 12.8571Z" fill="#CFCFDC"/>
<path d="M15.7143 12.8571H14.2857C13.8912 12.8571 13.5714 13.1769 13.5714 13.5714C13.5714 13.9659 13.8912 14.2857 14.2857 14.2857H15.7143C16.1088 14.2857 16.4286 13.9659 16.4286 13.5714C16.4285 13.1769 16.1087 12.8571 15.7143 12.8571Z" fill="#CFCFDC"/>
<path d="M5.71427 15.7143H4.28571C3.89121 15.7143 3.57141 16.0341 3.57141 16.4286C3.57141 16.8231 3.89121 17.1429 4.28571 17.1429H5.71427C6.10877 17.1429 6.42857 16.8231 6.42857 16.4286C6.42857 16.034 6.10877 15.7143 5.71427 15.7143Z" fill="#CFCFDC"/>
<path d="M10.7143 15.7143H9.28571C8.89121 15.7143 8.57141 16.0341 8.57141 16.4286C8.57141 16.8231 8.89121 17.1429 9.28571 17.1429H10.7143C11.1088 17.1429 11.4286 16.8231 11.4286 16.4286C11.4286 16.0341 11.1088 15.7143 10.7143 15.7143Z" fill="#CFCFDC"/>
<path d="M15.7143 15.7143H14.2857C13.8912 15.7143 13.5714 16.0341 13.5714 16.4286C13.5714 16.8231 13.8912 17.1429 14.2857 17.1429H15.7143C16.1088 17.1429 16.4286 16.8231 16.4286 16.4286C16.4286 16.0341 16.1087 15.7143 15.7143 15.7143Z" fill="#CFCFDC"/>
</svg>
