<svg width="46" height="46" viewBox="0 0 46 46" fill="none" xmlns="http://www.w3.org/2000/svg">
<path d="M37.375 46H8.625C3.86112 46 0 42.1389 0 37.375V8.625C0 3.86112 3.86112 0 8.625 0H37.375C42.1389 0 46 3.86112 46 8.625V37.375C46 42.1389 42.1389 46 37.375 46Z" fill="#5D98C7"/>
<g filter="url(#filter0_d_11_12)">
<path d="M27.9766 19.9766L22 26.0234L16.0234 19.9766H18.9766V15.4766H25.0234V19.9766H27.9766ZM32.4766 27.5V12.5234H11.4531V27.5H17.5C17.5 28.7188 17.9453 29.7734 18.8359 30.6641C19.7266 31.5547 20.7812 32 22 32C23.2188 32 24.2734 31.5547 25.1641 30.6641C26.0547 29.7734 26.5 28.7188 26.5 27.5H32.4766ZM32.4766 9.5C33.2734 9.5 33.9766 9.80469 34.5859 10.4141C35.1953 11.0234 35.5 11.7266 35.5 12.5234V33.4766C35.5 34.2734 35.1953 34.9766 34.5859 35.5859C33.9766 36.1953 33.2734 36.5 32.4766 36.5H11.4531C10.6094 36.5 9.90625 36.2188 9.34375 35.6562C8.78125 35.0469 8.5 34.3203 8.5 33.4766V12.5234C8.5 11.6797 8.78125 10.9766 9.34375 10.4141C9.90625 9.80469 10.6094 9.5 11.4531 9.5H32.4766Z" fill="#4DADF9"/>
<path d="M27.9766 19.9766L28.3322 20.328L29.1738 19.4766H27.9766V19.9766ZM22 26.0234L21.6444 26.3749L22 26.7347L22.3556 26.3749L22 26.0234ZM16.0234 19.9766V19.4766H14.8262L15.6678 20.328L16.0234 19.9766ZM18.9766 19.9766V20.4766H19.4766V19.9766H18.9766ZM18.9766 15.4766V14.9766H18.4766V15.4766H18.9766ZM25.0234 15.4766H25.5234V14.9766H25.0234V15.4766ZM25.0234 19.9766H24.5234V20.4766H25.0234V19.9766ZM32.4766 27.5V28H32.9766V27.5H32.4766ZM32.4766 12.5234H32.9766V12.0234H32.4766V12.5234ZM11.4531 12.5234V12.0234H10.9531V12.5234H11.4531ZM11.4531 27.5H10.9531V28H11.4531V27.5ZM17.5 27.5H18V27H17.5V27.5ZM26.5 27.5V27H26V27.5H26.5ZM9.34375 35.6562L8.97635 35.9954L8.98313 36.0027L8.9902 36.0098L9.34375 35.6562ZM9.34375 10.4141L9.6973 10.7676L9.70437 10.7605L9.71115 10.7532L9.34375 10.4141ZM27.6209 19.6251L21.6444 25.672L22.3556 26.3749L28.3322 20.328L27.6209 19.6251ZM22.3556 25.672L16.3791 19.6251L15.6678 20.328L21.6444 26.3749L22.3556 25.672ZM16.0234 20.4766H18.9766V19.4766H16.0234V20.4766ZM19.4766 19.9766V15.4766H18.4766V19.9766H19.4766ZM18.9766 15.9766H25.0234V14.9766H18.9766V15.9766ZM24.5234 15.4766V19.9766H25.5234V15.4766H24.5234ZM25.0234 20.4766H27.9766V19.4766H25.0234V20.4766ZM32.9766 27.5V12.5234H31.9766V27.5H32.9766ZM32.4766 12.0234H11.4531V13.0234H32.4766V12.0234ZM10.9531 12.5234V27.5H11.9531V12.5234H10.9531ZM11.4531 28H17.5V27H11.4531V28ZM17 27.5C17 28.8562 17.5015 30.0367 18.4824 31.0176L19.1895 30.3105C18.3891 29.5101 18 28.5813 18 27.5H17ZM18.4824 31.0176C19.4633 31.9985 20.6438 32.5 22 32.5V31.5C20.9187 31.5 19.9899 31.1109 19.1895 30.3105L18.4824 31.0176ZM22 32.5C23.3562 32.5 24.5367 31.9985 25.5176 31.0176L24.8105 30.3105C24.0101 31.1109 23.0813 31.5 22 31.5V32.5ZM25.5176 31.0176C26.4985 30.0367 27 28.8562 27 27.5H26C26 28.5813 25.6109 29.5101 24.8105 30.3105L25.5176 31.0176ZM26.5 28H32.4766V27H26.5V28ZM32.4766 10C33.1294 10 33.7083 10.2436 34.2324 10.7676L34.9395 10.0605C34.2448 9.3658 33.4175 9 32.4766 9V10ZM34.2324 10.7676C34.7564 11.2917 35 11.8706 35 12.5234H36C36 11.5825 35.6342 10.7552 34.9395 10.0605L34.2324 10.7676ZM35 12.5234V33.4766H36V12.5234H35ZM35 33.4766C35 34.1294 34.7564 34.7083 34.2324 35.2324L34.9395 35.9395C35.6342 35.2448 36 34.4175 36 33.4766H35ZM34.2324 35.2324C33.7083 35.7564 33.1294 36 32.4766 36V37C33.4175 37 34.2448 36.6342 34.9395 35.9395L34.2324 35.2324ZM32.4766 36H11.4531V37H32.4766V36ZM11.4531 36C10.7331 36 10.1599 35.7653 9.6973 35.3027L8.9902 36.0098C9.65259 36.6722 10.4857 37 11.4531 37V36ZM9.71115 35.3171C9.23554 34.8019 9 34.197 9 33.4766H8C8 34.4436 8.32696 35.2919 8.97635 35.9954L9.71115 35.3171ZM9 33.4766V12.5234H8V33.4766H9ZM9 12.5234C9 11.8034 9.2347 11.2302 9.6973 10.7676L8.9902 10.0605C8.3278 10.7229 8 11.556 8 12.5234H9ZM9.71115 10.7532C10.1771 10.2484 10.7462 10 11.4531 10V9C10.4726 9 9.63536 9.36099 8.97635 10.0749L9.71115 10.7532ZM11.4531 10H32.4766V9H11.4531V10Z" fill="white"/>
</g>
<defs>
<filter id="filter0_d_11_12" x="4.5" y="9.5" width="35" height="35" filterUnits="userSpaceOnUse" color-interpolation-filters="sRGB">
<feFlood flood-opacity="0" result="BackgroundImageFix"/>
<feColorMatrix in="SourceAlpha" type="matrix" values="0 0 0 0 0 0 0 0 0 0 0 0 0 0 0 0 0 0 127 0" result="hardAlpha"/>
<feOffset dy="4"/>
<feGaussianBlur stdDeviation="2"/>
<feComposite in2="hardAlpha" operator="out"/>
<feColorMatrix type="matrix" values="0 0 0 0 0 0 0 0 0 0 0 0 0 0 0 0 0 0 0.25 0"/>
<feBlend mode="normal" in2="BackgroundImageFix" result="effect1_dropShadow_11_12"/>
<feBlend mode="normal" in="SourceGraphic" in2="effect1_dropShadow_11_12" result="shape"/>
</filter>
</defs>
</svg>
