<svg width="46" height="46" viewBox="0 0 46 46" fill="none" xmlns="http://www.w3.org/2000/svg">
<path d="M37.375 46H8.625C3.86113 46 0 42.1389 0 37.375V8.625C0 3.86113 3.86113 0 8.625 0H37.375C42.1389 0 46 3.86113 46 8.625V37.375C46 42.1389 42.1389 46 37.375 46Z" fill="#E2CD6B"/>
<g filter="url(#filter0_d_11_18)">
<path d="M34.0234 32V14H9.97656V32H34.0234ZM34.0234 10.9766C34.8672 10.9766 35.5703 11.2812 36.1328 11.8906C36.6953 12.4531 36.9766 13.1562 36.9766 14V32C36.9766 32.8438 36.6953 33.5703 36.1328 34.1797C35.5703 34.7422 34.8672 35.0234 34.0234 35.0234H9.97656C9.13281 35.0234 8.42969 34.7422 7.86719 34.1797C7.30469 33.5703 7.02344 32.8438 7.02344 32V14C7.02344 13.1562 7.30469 12.4531 7.86719 11.8906C8.42969 11.2812 9.13281 10.9766 9.97656 10.9766H34.0234ZM20.5234 30.5234V28.9766H17.5V26.0234H23.4766V24.4766H18.9766C18.5547 24.4766 18.2031 24.3359 17.9219 24.0547C17.6406 23.7734 17.5 23.4219 17.5 23V18.5C17.5 18.0781 17.6406 17.7266 17.9219 17.4453C18.2031 17.1641 18.5547 17.0234 18.9766 17.0234H20.5234V15.4766H23.4766V17.0234H26.5V19.9766H20.5234V21.5234H25.0234C25.4453 21.5234 25.7969 21.6641 26.0781 21.9453C26.3594 22.2266 26.5 22.5781 26.5 23V27.5C26.5 27.9219 26.3594 28.2734 26.0781 28.5547C25.7969 28.8359 25.4453 28.9766 25.0234 28.9766H23.4766V30.5234H20.5234Z" fill="#FFBB38"/>
<path d="M34.0234 32V32.5H34.5234V32H34.0234ZM34.0234 14H34.5234V13.5H34.0234V14ZM9.97656 14V13.5H9.47656V14H9.97656ZM9.97656 32H9.47656V32.5H9.97656V32ZM36.1328 11.8906L35.7654 12.2298L35.7722 12.2371L35.7793 12.2442L36.1328 11.8906ZM36.1328 34.1797L36.4864 34.5332L36.4934 34.5262L36.5002 34.5188L36.1328 34.1797ZM7.86719 34.1797L7.49979 34.5188L7.50657 34.5262L7.51363 34.5332L7.86719 34.1797ZM7.86719 11.8906L8.22074 12.2442L8.22781 12.2371L8.23459 12.2298L7.86719 11.8906ZM20.5234 30.5234H20.0234V31.0234H20.5234V30.5234ZM20.5234 28.9766H21.0234V28.4766H20.5234V28.9766ZM17.5 28.9766H17V29.4766H17.5V28.9766ZM17.5 26.0234V25.5234H17V26.0234H17.5ZM23.4766 26.0234V26.5234H23.9766V26.0234H23.4766ZM23.4766 24.4766H23.9766V23.9766H23.4766V24.4766ZM20.5234 17.0234V17.5234H21.0234V17.0234H20.5234ZM20.5234 15.4766V14.9766H20.0234V15.4766H20.5234ZM23.4766 15.4766H23.9766V14.9766H23.4766V15.4766ZM23.4766 17.0234H22.9766V17.5234H23.4766V17.0234ZM26.5 17.0234H27V16.5234H26.5V17.0234ZM26.5 19.9766V20.4766H27V19.9766H26.5ZM20.5234 19.9766V19.4766H20.0234V19.9766H20.5234ZM20.5234 21.5234H20.0234V22.0234H20.5234V21.5234ZM23.4766 28.9766V28.4766H22.9766V28.9766H23.4766ZM23.4766 30.5234V31.0234H23.9766V30.5234H23.4766ZM34.5234 32V14H33.5234V32H34.5234ZM34.0234 13.5H9.97656V14.5H34.0234V13.5ZM9.47656 14V32H10.4766V14H9.47656ZM9.97656 32.5H34.0234V31.5H9.97656V32.5ZM34.0234 11.4766C34.7304 11.4766 35.2994 11.7249 35.7654 12.2298L36.5002 11.5515C35.8412 10.8376 35.004 10.4766 34.0234 10.4766V11.4766ZM35.7793 12.2442C36.2419 12.7068 36.4766 13.2799 36.4766 14H37.4766C37.4766 13.0326 37.1488 12.1995 36.4864 11.5371L35.7793 12.2442ZM36.4766 14V32H37.4766V14H36.4766ZM36.4766 32C36.4766 32.7205 36.241 33.3253 35.7654 33.8405L36.5002 34.5188C37.1496 33.8153 37.4766 32.967 37.4766 32H36.4766ZM35.7793 33.8261C35.3167 34.2887 34.7435 34.5234 34.0234 34.5234V35.5234C34.9909 35.5234 35.824 35.1956 36.4864 34.5332L35.7793 33.8261ZM34.0234 34.5234H9.97656V35.5234H34.0234V34.5234ZM9.97656 34.5234C9.25649 34.5234 8.68334 34.2887 8.22074 33.8261L7.51363 34.5332C8.17603 35.1956 9.00913 35.5234 9.97656 35.5234V34.5234ZM8.23459 33.8405C7.75898 33.3253 7.52344 32.7205 7.52344 32H6.52344C6.52344 32.967 6.8504 33.8153 7.49979 34.5188L8.23459 33.8405ZM7.52344 32V14H6.52344V32H7.52344ZM7.52344 14C7.52344 13.2799 7.75814 12.7068 8.22074 12.2442L7.51363 11.5371C6.85124 12.1995 6.52344 13.0326 6.52344 14H7.52344ZM8.23459 12.2298C8.70058 11.7249 9.2696 11.4766 9.97656 11.4766V10.4766C8.99603 10.4766 8.1588 10.8376 7.49979 11.5515L8.23459 12.2298ZM9.97656 11.4766H34.0234V10.4766H9.97656V11.4766ZM21.0234 30.5234V28.9766H20.0234V30.5234H21.0234ZM20.5234 28.4766H17.5V29.4766H20.5234V28.4766ZM18 28.9766V26.0234H17V28.9766H18ZM17.5 26.5234H23.4766V25.5234H17.5V26.5234ZM23.9766 26.0234V24.4766H22.9766V26.0234H23.9766ZM23.4766 23.9766H18.9766V24.9766H23.4766V23.9766ZM18.9766 23.9766C18.6784 23.9766 18.4568 23.8825 18.2754 23.7011L17.5683 24.4082C17.9495 24.7894 18.431 24.9766 18.9766 24.9766V23.9766ZM18.2754 23.7011C18.0941 23.5198 18 23.2982 18 23H17C17 23.5456 17.1872 24.0271 17.5683 24.4082L18.2754 23.7011ZM18 23V18.5H17V23H18ZM18 18.5C18 18.2018 18.0941 17.9802 18.2754 17.7989L17.5683 17.0918C17.1872 17.4729 17 17.9544 17 18.5H18ZM18.2754 17.7989C18.4568 17.6175 18.6784 17.5234 18.9766 17.5234V16.5234C18.431 16.5234 17.9495 16.7106 17.5683 17.0918L18.2754 17.7989ZM18.9766 17.5234H20.5234V16.5234H18.9766V17.5234ZM21.0234 17.0234V15.4766H20.0234V17.0234H21.0234ZM20.5234 15.9766H23.4766V14.9766H20.5234V15.9766ZM22.9766 15.4766V17.0234H23.9766V15.4766H22.9766ZM23.4766 17.5234H26.5V16.5234H23.4766V17.5234ZM26 17.0234V19.9766H27V17.0234H26ZM26.5 19.4766H20.5234V20.4766H26.5V19.4766ZM20.0234 19.9766V21.5234H21.0234V19.9766H20.0234ZM20.5234 22.0234H25.0234V21.0234H20.5234V22.0234ZM25.0234 22.0234C25.3216 22.0234 25.5432 22.1175 25.7246 22.2989L26.4317 21.5918C26.0505 21.2106 25.569 21.0234 25.0234 21.0234V22.0234ZM25.7246 22.2989C25.9059 22.4802 26 22.7018 26 23H27C27 22.4544 26.8128 21.9729 26.4317 21.5918L25.7246 22.2989ZM26 23V27.5H27V23H26ZM26 27.5C26 27.7982 25.9059 28.0198 25.7246 28.2011L26.4317 28.9082C26.8128 28.5271 27 28.0456 27 27.5H26ZM25.7246 28.2011C25.5432 28.3825 25.3216 28.4766 25.0234 28.4766V29.4766C25.569 29.4766 26.0505 29.2894 26.4317 28.9082L25.7246 28.2011ZM25.0234 28.4766H23.4766V29.4766H25.0234V28.4766ZM22.9766 28.9766V30.5234H23.9766V28.9766H22.9766ZM23.4766 30.0234H20.5234V31.0234H23.4766V30.0234Z" fill="white"/>
</g>
<defs>
<filter id="filter0_d_11_18" x="3.02344" y="10.9766" width="37.9531" height="32.0469" filterUnits="userSpaceOnUse" color-interpolation-filters="sRGB">
<feFlood flood-opacity="0" result="BackgroundImageFix"/>
<feColorMatrix in="SourceAlpha" type="matrix" values="0 0 0 0 0 0 0 0 0 0 0 0 0 0 0 0 0 0 127 0" result="hardAlpha"/>
<feOffset dy="4"/>
<feGaussianBlur stdDeviation="2"/>
<feComposite in2="hardAlpha" operator="out"/>
<feColorMatrix type="matrix" values="0 0 0 0 0 0 0 0 0 0 0 0 0 0 0 0 0 0 0.25 0"/>
<feBlend mode="normal" in2="BackgroundImageFix" result="effect1_dropShadow_11_18"/>
<feBlend mode="normal" in="SourceGraphic" in2="effect1_dropShadow_11_18" result="shape"/>
</filter>
</defs>
</svg>
