<svg width="46" height="46" viewBox="0 0 46 46" fill="none" xmlns="http://www.w3.org/2000/svg">
<path d="M37.375 46H8.625C3.86113 46 0 42.1389 0 37.375V8.625C0 3.86113 3.86113 0 8.625 0H37.375C42.1389 0 46 3.86113 46 8.625V37.375C46 42.1389 42.1389 46 37.375 46Z" fill="#E27766"/>
<g filter="url(#filter0_d_11_6)">
<path d="M30.5234 8.02344H15.4766C14.6797 8.02344 13.9766 8.32812 13.3672 8.9375C12.8047 9.5 12.5234 10.1797 12.5234 10.9766V14C12.5234 14.8438 12.8047 15.5703 13.3672 16.1797C13.9766 16.7422 14.6797 17.0234 15.4766 17.0234H30.5234C31.3203 17.0234 32 16.7422 32.5625 16.1797C33.1719 15.5703 33.4766 14.8438 33.4766 14V10.9766C33.4766 10.1797 33.1719 9.5 32.5625 8.9375C32 8.32812 31.3203 8.02344 30.5234 8.02344ZM30.5234 14H15.4766V10.9766H30.5234V14ZM35.0234 37.9766H10.9766C10.1797 37.9766 9.47656 37.6953 8.86719 37.1328C8.30469 36.5234 8.02344 35.8203 8.02344 35.0234V33.4766H37.9766V35.0234C37.9766 35.8203 37.6719 36.5234 37.0625 37.1328C36.5 37.6953 35.8203 37.9766 35.0234 37.9766ZM32.7734 20.2578C32.5391 19.7422 32.1641 19.3203 31.6484 18.9922C31.1797 18.6641 30.6406 18.5 30.0312 18.5H15.9688C15.3594 18.5 14.7969 18.6641 14.2812 18.9922C13.8125 19.3203 13.4609 19.7422 13.2266 20.2578L8.02344 32H37.9766L32.7734 20.2578ZM19.2734 28.9766H17.7266C17.5391 28.9766 17.375 28.9062 17.2344 28.7656C17.0938 28.625 17.0234 28.4609 17.0234 28.2734C17.0234 28.0391 17.0938 27.8516 17.2344 27.7109C17.375 27.5703 17.5391 27.5 17.7266 27.5H19.2734C19.4609 27.5 19.625 27.5703 19.7656 27.7109C19.9062 27.8516 19.9766 28.0391 19.9766 28.2734C19.9766 28.4609 19.9062 28.625 19.7656 28.7656C19.625 28.9062 19.4609 28.9766 19.2734 28.9766ZM19.2734 26.0234H17.7266C17.5391 26.0234 17.375 25.9531 17.2344 25.8125C17.0938 25.625 17.0234 25.4375 17.0234 25.25C17.0234 25.0625 17.0938 24.8984 17.2344 24.7578C17.375 24.5703 17.5391 24.4766 17.7266 24.4766H19.2734C19.4609 24.4766 19.625 24.5703 19.7656 24.7578C19.9062 24.8984 19.9766 25.0625 19.9766 25.25C19.9766 25.4375 19.9062 25.625 19.7656 25.8125C19.625 25.9531 19.4609 26.0234 19.2734 26.0234ZM19.2734 23H17.7266C17.5391 23 17.375 22.9297 17.2344 22.7891C17.0938 22.6484 17.0234 22.4609 17.0234 22.2266C17.0234 22.0391 17.0938 21.875 17.2344 21.7344C17.375 21.5938 17.5391 21.5234 17.7266 21.5234H19.2734C19.4609 21.5234 19.625 21.5938 19.7656 21.7344C19.9062 21.875 19.9766 22.0391 19.9766 22.2266C19.9766 22.4609 19.9062 22.6484 19.7656 22.7891C19.625 22.9297 19.4609 23 19.2734 23ZM23.7734 28.9766H22.2266C22.0391 28.9766 21.875 28.9062 21.7344 28.7656C21.5938 28.625 21.5234 28.4609 21.5234 28.2734C21.5234 28.0391 21.5938 27.8516 21.7344 27.7109C21.875 27.5703 22.0391 27.5 22.2266 27.5H23.7734C23.9609 27.5 24.125 27.5703 24.2656 27.7109C24.4062 27.8516 24.4766 28.0391 24.4766 28.2734C24.4766 28.4609 24.4062 28.625 24.2656 28.7656C24.125 28.9062 23.9609 28.9766 23.7734 28.9766ZM23.7734 26.0234H22.2266C22.0391 26.0234 21.875 25.9531 21.7344 25.8125C21.5938 25.625 21.5234 25.4375 21.5234 25.25C21.5234 25.0625 21.5938 24.8984 21.7344 24.7578C21.875 24.5703 22.0391 24.4766 22.2266 24.4766H23.7734C23.9609 24.4766 24.125 24.5703 24.2656 24.7578C24.4062 24.8984 24.4766 25.0625 24.4766 25.25C24.4766 25.4375 24.4062 25.625 24.2656 25.8125C24.125 25.9531 23.9609 26.0234 23.7734 26.0234ZM23.7734 23H22.2266C22.0391 23 21.875 22.9297 21.7344 22.7891C21.5938 22.6484 21.5234 22.4609 21.5234 22.2266C21.5234 22.0391 21.5938 21.875 21.7344 21.7344C21.875 21.5938 22.0391 21.5234 22.2266 21.5234H23.7734C23.9609 21.5234 24.125 21.5938 24.2656 21.7344C24.4062 21.875 24.4766 22.0391 24.4766 22.2266C24.4766 22.4609 24.4062 22.6484 24.2656 22.7891C24.125 22.9297 23.9609 23 23.7734 23ZM28.2734 28.9766H26.7266C26.5391 28.9766 26.375 28.9062 26.2344 28.7656C26.0938 28.625 26.0234 28.4609 26.0234 28.2734C26.0234 28.0391 26.0938 27.8516 26.2344 27.7109C26.375 27.5703 26.5391 27.5 26.7266 27.5H28.2734C28.4609 27.5 28.625 27.5703 28.7656 27.7109C28.9062 27.8516 28.9766 28.0391 28.9766 28.2734C28.9766 28.4609 28.9062 28.625 28.7656 28.7656C28.625 28.9062 28.4609 28.9766 28.2734 28.9766ZM28.2734 26.0234H26.7266C26.5391 26.0234 26.375 25.9531 26.2344 25.8125C26.0938 25.625 26.0234 25.4375 26.0234 25.25C26.0234 25.0625 26.0938 24.8984 26.2344 24.7578C26.375 24.5703 26.5391 24.4766 26.7266 24.4766H28.2734C28.4609 24.4766 28.625 24.5703 28.7656 24.7578C28.9062 24.8984 28.9766 25.0625 28.9766 25.25C28.9766 25.4375 28.9062 25.625 28.7656 25.8125C28.625 25.9531 28.4609 26.0234 28.2734 26.0234ZM28.2734 23H26.7266C26.5391 23 26.375 22.9297 26.2344 22.7891C26.0938 22.6484 26.0234 22.4609 26.0234 22.2266C26.0234 22.0391 26.0938 21.875 26.2344 21.7344C26.375 21.5938 26.5391 21.5234 26.7266 21.5234H28.2734C28.4609 21.5234 28.625 21.5938 28.7656 21.7344C28.9062 21.875 28.9766 22.0391 28.9766 22.2266C28.9766 22.4609 28.9062 22.6484 28.7656 22.7891C28.625 22.9297 28.4609 23 28.2734 23Z" fill="#FE7362"/>
<path d="M13.3672 16.1797L12.9998 16.5188L13.0134 16.5335L13.028 16.5471L13.3672 16.1797ZM32.5625 8.9375L32.1951 9.27664L32.2087 9.29134L32.2234 9.3049L32.5625 8.9375ZM30.5234 14V14.5H31.0234V14H30.5234ZM15.4766 14H14.9766V14.5H15.4766V14ZM15.4766 10.9766V10.4766H14.9766V10.9766H15.4766ZM30.5234 10.9766H31.0234V10.4766H30.5234V10.9766ZM8.86719 37.1328L8.49979 37.472L8.51335 37.4866L8.52805 37.5002L8.86719 37.1328ZM8.02344 33.4766V32.9766H7.52344V33.4766H8.02344ZM37.9766 33.4766H38.4766V32.9766H37.9766V33.4766ZM32.7734 20.2578L33.2306 20.0552L33.2286 20.0509L32.7734 20.2578ZM31.6484 18.9922L31.3617 19.4018L31.3707 19.4081L31.38 19.414L31.6484 18.9922ZM14.2812 18.9922L14.0128 18.5704L14.0035 18.5763L13.9945 18.5826L14.2812 18.9922ZM13.2266 20.2578L12.7714 20.0509L12.7694 20.0553L13.2266 20.2578ZM8.02344 32L7.56631 31.7974L7.25499 32.5H8.02344V32ZM37.9766 32V32.5H38.745L38.4337 31.7974L37.9766 32ZM17.2344 25.8125L16.8344 26.1125L16.8557 26.1409L16.8808 26.1661L17.2344 25.8125ZM17.2344 24.7578L17.5879 25.1114L17.6131 25.0862L17.6344 25.0578L17.2344 24.7578ZM19.7656 24.7578L19.3656 25.0578L19.3869 25.0862L19.4121 25.1114L19.7656 24.7578ZM19.7656 25.8125L20.1192 26.1661L20.1443 26.1409L20.1656 26.1125L19.7656 25.8125ZM21.7344 25.8125L21.3344 26.1125L21.3557 26.1409L21.3808 26.1661L21.7344 25.8125ZM21.7344 24.7578L22.0879 25.1114L22.1131 25.0862L22.1344 25.0578L21.7344 24.7578ZM24.2656 24.7578L23.8656 25.0578L23.8869 25.0862L23.9121 25.1114L24.2656 24.7578ZM24.2656 25.8125L24.6192 26.1661L24.6443 26.1409L24.6656 26.1125L24.2656 25.8125ZM26.2344 25.8125L25.8344 26.1125L25.8557 26.1409L25.8808 26.1661L26.2344 25.8125ZM26.2344 24.7578L26.5879 25.1114L26.6131 25.0862L26.6344 25.0578L26.2344 24.7578ZM28.7656 24.7578L28.3656 25.0578L28.3869 25.0862L28.4121 25.1114L28.7656 24.7578ZM28.7656 25.8125L29.1192 26.1661L29.1443 26.1409L29.1656 26.1125L28.7656 25.8125ZM30.5234 7.52344H15.4766V8.52344H30.5234V7.52344ZM15.4766 7.52344C14.5356 7.52344 13.7083 7.88924 13.0136 8.58395L13.7207 9.29105C14.2448 8.76701 14.8238 8.52344 15.4766 8.52344V7.52344ZM13.0136 8.58395C12.3572 9.2404 12.0234 10.0473 12.0234 10.9766H13.0234C13.0234 10.312 13.2522 9.7596 13.7207 9.29105L13.0136 8.58395ZM12.0234 10.9766V14H13.0234V10.9766H12.0234ZM12.0234 14C12.0234 14.967 12.3504 15.8153 12.9998 16.5188L13.7346 15.8405C13.259 15.3253 13.0234 14.7205 13.0234 14H12.0234ZM13.028 16.5471C13.7256 17.191 14.5485 17.5234 15.4766 17.5234V16.5234C14.8109 16.5234 14.2275 16.2934 13.7063 15.8123L13.028 16.5471ZM15.4766 17.5234H30.5234V16.5234H15.4766V17.5234ZM30.5234 17.5234C31.4527 17.5234 32.2596 17.1897 32.9161 16.5332L32.2089 15.8261C31.7404 16.2947 31.188 16.5234 30.5234 16.5234V17.5234ZM32.9161 16.5332C33.6169 15.8323 33.9766 14.9795 33.9766 14H32.9766C32.9766 14.708 32.7268 15.3083 32.2089 15.8261L32.9161 16.5332ZM33.9766 14V10.9766H32.9766V14H33.9766ZM33.9766 10.9766C33.9766 10.0338 33.6088 9.2229 32.9016 8.5701L32.2234 9.3049C32.7349 9.7771 32.9766 10.3255 32.9766 10.9766H33.9766ZM32.9299 8.59836C32.2771 7.89116 31.4662 7.52344 30.5234 7.52344V8.52344C31.1745 8.52344 31.7229 8.76509 32.1951 9.27664L32.9299 8.59836ZM30.5234 13.5H15.4766V14.5H30.5234V13.5ZM15.9766 14V10.9766H14.9766V14H15.9766ZM15.4766 11.4766H30.5234V10.4766H15.4766V11.4766ZM30.0234 10.9766V14H31.0234V10.9766H30.0234ZM35.0234 37.4766H10.9766V38.4766H35.0234V37.4766ZM10.9766 37.4766C10.3109 37.4766 9.72748 37.2465 9.20633 36.7654L8.52805 37.5002C9.22564 38.1441 10.0485 38.4766 10.9766 38.4766V37.4766ZM9.23459 36.7937C8.75352 36.2725 8.52344 35.6891 8.52344 35.0234H7.52344C7.52344 35.9515 7.85585 36.7744 8.49979 37.472L9.23459 36.7937ZM8.52344 35.0234V33.4766H7.52344V35.0234H8.52344ZM8.02344 33.9766H37.9766V32.9766H8.02344V33.9766ZM37.4766 33.4766V35.0234H38.4766V33.4766H37.4766ZM37.4766 35.0234C37.4766 35.6762 37.233 36.2552 36.7089 36.7793L37.4161 37.4864C38.1108 36.7917 38.4766 35.9644 38.4766 35.0234H37.4766ZM36.7089 36.7793C36.2404 37.2478 35.688 37.4766 35.0234 37.4766V38.4766C35.9527 38.4766 36.7596 38.1428 37.4161 37.4864L36.7089 36.7793ZM33.2286 20.0509C32.951 19.44 32.5075 18.9462 31.9169 18.5704L31.38 19.414C31.8206 19.6944 32.1272 20.0443 32.3183 20.4647L33.2286 20.0509ZM31.9352 18.5826C31.3768 18.1917 30.7362 18 30.0312 18V19C30.5451 19 30.9826 19.1364 31.3617 19.4018L31.9352 18.5826ZM30.0312 18H15.9688V19H30.0312V18ZM15.9688 18C15.264 18 14.6084 18.1913 14.0128 18.5704L14.5497 19.414C14.9853 19.1368 15.4548 19 15.9688 19V18ZM13.9945 18.5826C13.4533 18.9614 13.0432 19.453 12.7714 20.0509L13.6817 20.4647C13.8787 20.0314 14.1717 19.6792 14.568 19.4018L13.9945 18.5826ZM12.7694 20.0553L7.56631 31.7974L8.48057 32.2026L13.6837 20.4604L12.7694 20.0553ZM8.02344 32.5H37.9766V31.5H8.02344V32.5ZM38.4337 31.7974L33.2306 20.0553L32.3163 20.4604L37.5194 32.2026L38.4337 31.7974ZM19.2734 28.4766H17.7266V29.4766H19.2734V28.4766ZM17.7266 28.4766C17.6803 28.4766 17.6411 28.4652 17.5879 28.4121L16.8808 29.1192C17.1089 29.3473 17.3978 29.4766 17.7266 29.4766V28.4766ZM17.5879 28.4121C17.5348 28.3589 17.5234 28.3197 17.5234 28.2734H16.5234C16.5234 28.6022 16.6527 28.8911 16.8808 29.1192L17.5879 28.4121ZM17.5234 28.2734C17.5234 28.1462 17.5577 28.0947 17.5879 28.0645L16.8808 27.3574C16.6298 27.6084 16.5234 27.9319 16.5234 28.2734H17.5234ZM17.5879 28.0645C17.6411 28.0113 17.6803 28 17.7266 28V27C17.3978 27 17.1089 27.1293 16.8808 27.3574L17.5879 28.0645ZM17.7266 28H19.2734V27H17.7266V28ZM19.2734 28C19.3197 28 19.3589 28.0113 19.4121 28.0645L20.1192 27.3574C19.8911 27.1293 19.6022 27 19.2734 27V28ZM19.4121 28.0645C19.4423 28.0947 19.4766 28.1462 19.4766 28.2734H20.4766C20.4766 27.9319 20.3702 27.6084 20.1192 27.3574L19.4121 28.0645ZM19.4766 28.2734C19.4766 28.3197 19.4652 28.3589 19.4121 28.4121L20.1192 29.1192C20.3473 28.8911 20.4766 28.6022 20.4766 28.2734H19.4766ZM19.4121 28.4121C19.3589 28.4652 19.3197 28.4766 19.2734 28.4766V29.4766C19.6022 29.4766 19.8911 29.3473 20.1192 29.1192L19.4121 28.4121ZM19.2734 25.5234H17.7266V26.5234H19.2734V25.5234ZM17.7266 25.5234C17.6803 25.5234 17.6411 25.5121 17.5879 25.4589L16.8808 26.1661C17.1089 26.3941 17.3978 26.5234 17.7266 26.5234V25.5234ZM17.6344 25.5125C17.5422 25.3896 17.5234 25.3048 17.5234 25.25H16.5234C16.5234 25.5702 16.6453 25.8604 16.8344 26.1125L17.6344 25.5125ZM17.5234 25.25C17.5234 25.2038 17.5348 25.1645 17.5879 25.1114L16.8808 24.4043C16.6527 24.6323 16.5234 24.9212 16.5234 25.25H17.5234ZM17.6344 25.0578C17.6733 25.0059 17.7006 24.9869 17.711 24.981C17.7181 24.9769 17.7205 24.9766 17.7266 24.9766V23.9766C17.3426 23.9766 17.0432 24.1793 16.8344 24.4578L17.6344 25.0578ZM17.7266 24.9766H19.2734V23.9766H17.7266V24.9766ZM19.2734 24.9766C19.2795 24.9766 19.2819 24.9769 19.289 24.981C19.2994 24.9869 19.3267 25.0059 19.3656 25.0578L20.1656 24.4578C19.9568 24.1793 19.6574 23.9766 19.2734 23.9766V24.9766ZM19.4121 25.1114C19.4652 25.1645 19.4766 25.2038 19.4766 25.25H20.4766C20.4766 24.9212 20.3473 24.6323 20.1192 24.4043L19.4121 25.1114ZM19.4766 25.25C19.4766 25.3048 19.4578 25.3896 19.3656 25.5125L20.1656 26.1125C20.3547 25.8604 20.4766 25.5702 20.4766 25.25H19.4766ZM19.4121 25.4589C19.3589 25.5121 19.3197 25.5234 19.2734 25.5234V26.5234C19.6022 26.5234 19.8911 26.3941 20.1192 26.1661L19.4121 25.4589ZM19.2734 22.5H17.7266V23.5H19.2734V22.5ZM17.7266 22.5C17.6803 22.5 17.6411 22.4887 17.5879 22.4355L16.8808 23.1426C17.1089 23.3707 17.3978 23.5 17.7266 23.5V22.5ZM17.5879 22.4355C17.5577 22.4053 17.5234 22.3538 17.5234 22.2266H16.5234C16.5234 22.5681 16.6298 22.8916 16.8808 23.1426L17.5879 22.4355ZM17.5234 22.2266C17.5234 22.1803 17.5348 22.1411 17.5879 22.0879L16.8808 21.3808C16.6527 21.6089 16.5234 21.8978 16.5234 22.2266H17.5234ZM17.5879 22.0879C17.6411 22.0348 17.6803 22.0234 17.7266 22.0234V21.0234C17.3978 21.0234 17.1089 21.1527 16.8808 21.3808L17.5879 22.0879ZM17.7266 22.0234H19.2734V21.0234H17.7266V22.0234ZM19.2734 22.0234C19.3197 22.0234 19.3589 22.0348 19.4121 22.0879L20.1192 21.3808C19.8911 21.1527 19.6022 21.0234 19.2734 21.0234V22.0234ZM19.4121 22.0879C19.4652 22.1411 19.4766 22.1803 19.4766 22.2266H20.4766C20.4766 21.8978 20.3473 21.6089 20.1192 21.3808L19.4121 22.0879ZM19.4766 22.2266C19.4766 22.3538 19.4423 22.4053 19.4121 22.4355L20.1192 23.1426C20.3702 22.8916 20.4766 22.5681 20.4766 22.2266H19.4766ZM19.4121 22.4355C19.3589 22.4887 19.3197 22.5 19.2734 22.5V23.5C19.6022 23.5 19.8911 23.3707 20.1192 23.1426L19.4121 22.4355ZM23.7734 28.4766H22.2266V29.4766H23.7734V28.4766ZM22.2266 28.4766C22.1803 28.4766 22.1411 28.4652 22.0879 28.4121L21.3808 29.1192C21.6089 29.3473 21.8978 29.4766 22.2266 29.4766V28.4766ZM22.0879 28.4121C22.0348 28.3589 22.0234 28.3197 22.0234 28.2734H21.0234C21.0234 28.6022 21.1527 28.8911 21.3808 29.1192L22.0879 28.4121ZM22.0234 28.2734C22.0234 28.1462 22.0577 28.0947 22.0879 28.0645L21.3808 27.3574C21.1298 27.6084 21.0234 27.9319 21.0234 28.2734H22.0234ZM22.0879 28.0645C22.1411 28.0113 22.1803 28 22.2266 28V27C21.8978 27 21.6089 27.1293 21.3808 27.3574L22.0879 28.0645ZM22.2266 28H23.7734V27H22.2266V28ZM23.7734 28C23.8197 28 23.8589 28.0113 23.9121 28.0645L24.6192 27.3574C24.3911 27.1293 24.1022 27 23.7734 27V28ZM23.9121 28.0645C23.9423 28.0947 23.9766 28.1462 23.9766 28.2734H24.9766C24.9766 27.9319 24.8702 27.6084 24.6192 27.3574L23.9121 28.0645ZM23.9766 28.2734C23.9766 28.3197 23.9652 28.3589 23.9121 28.4121L24.6192 29.1192C24.8473 28.8911 24.9766 28.6022 24.9766 28.2734H23.9766ZM23.9121 28.4121C23.8589 28.4652 23.8197 28.4766 23.7734 28.4766V29.4766C24.1022 29.4766 24.3911 29.3473 24.6192 29.1192L23.9121 28.4121ZM23.7734 25.5234H22.2266V26.5234H23.7734V25.5234ZM22.2266 25.5234C22.1803 25.5234 22.1411 25.5121 22.0879 25.4589L21.3808 26.1661C21.6089 26.3941 21.8978 26.5234 22.2266 26.5234V25.5234ZM22.1344 25.5125C22.0422 25.3896 22.0234 25.3048 22.0234 25.25H21.0234C21.0234 25.5702 21.1453 25.8604 21.3344 26.1125L22.1344 25.5125ZM22.0234 25.25C22.0234 25.2038 22.0348 25.1645 22.0879 25.1114L21.3808 24.4043C21.1527 24.6323 21.0234 24.9212 21.0234 25.25H22.0234ZM22.1344 25.0578C22.1733 25.0059 22.2006 24.9869 22.211 24.981C22.2181 24.9769 22.2205 24.9766 22.2266 24.9766V23.9766C21.8426 23.9766 21.5432 24.1793 21.3344 24.4578L22.1344 25.0578ZM22.2266 24.9766H23.7734V23.9766H22.2266V24.9766ZM23.7734 24.9766C23.7795 24.9766 23.7819 24.9769 23.789 24.981C23.7994 24.9869 23.8267 25.0059 23.8656 25.0578L24.6656 24.4578C24.4568 24.1793 24.1574 23.9766 23.7734 23.9766V24.9766ZM23.9121 25.1114C23.9652 25.1645 23.9766 25.2038 23.9766 25.25H24.9766C24.9766 24.9212 24.8473 24.6323 24.6192 24.4043L23.9121 25.1114ZM23.9766 25.25C23.9766 25.3048 23.9578 25.3896 23.8656 25.5125L24.6656 26.1125C24.8547 25.8604 24.9766 25.5702 24.9766 25.25H23.9766ZM23.9121 25.4589C23.8589 25.5121 23.8197 25.5234 23.7734 25.5234V26.5234C24.1022 26.5234 24.3911 26.3941 24.6192 26.1661L23.9121 25.4589ZM23.7734 22.5H22.2266V23.5H23.7734V22.5ZM22.2266 22.5C22.1803 22.5 22.1411 22.4887 22.0879 22.4355L21.3808 23.1426C21.6089 23.3707 21.8978 23.5 22.2266 23.5V22.5ZM22.0879 22.4355C22.0577 22.4053 22.0234 22.3538 22.0234 22.2266H21.0234C21.0234 22.5681 21.1298 22.8916 21.3808 23.1426L22.0879 22.4355ZM22.0234 22.2266C22.0234 22.1803 22.0348 22.1411 22.0879 22.0879L21.3808 21.3808C21.1527 21.6089 21.0234 21.8978 21.0234 22.2266H22.0234ZM22.0879 22.0879C22.1411 22.0348 22.1803 22.0234 22.2266 22.0234V21.0234C21.8978 21.0234 21.6089 21.1527 21.3808 21.3808L22.0879 22.0879ZM22.2266 22.0234H23.7734V21.0234H22.2266V22.0234ZM23.7734 22.0234C23.8197 22.0234 23.8589 22.0348 23.9121 22.0879L24.6192 21.3808C24.3911 21.1527 24.1022 21.0234 23.7734 21.0234V22.0234ZM23.9121 22.0879C23.9652 22.1411 23.9766 22.1803 23.9766 22.2266H24.9766C24.9766 21.8978 24.8473 21.6089 24.6192 21.3808L23.9121 22.0879ZM23.9766 22.2266C23.9766 22.3538 23.9423 22.4053 23.9121 22.4355L24.6192 23.1426C24.8702 22.8916 24.9766 22.5681 24.9766 22.2266H23.9766ZM23.9121 22.4355C23.8589 22.4887 23.8197 22.5 23.7734 22.5V23.5C24.1022 23.5 24.3911 23.3707 24.6192 23.1426L23.9121 22.4355ZM28.2734 28.4766H26.7266V29.4766H28.2734V28.4766ZM26.7266 28.4766C26.6803 28.4766 26.6411 28.4652 26.5879 28.4121L25.8808 29.1192C26.1089 29.3473 26.3978 29.4766 26.7266 29.4766V28.4766ZM26.5879 28.4121C26.5348 28.3589 26.5234 28.3197 26.5234 28.2734H25.5234C25.5234 28.6022 25.6527 28.8911 25.8808 29.1192L26.5879 28.4121ZM26.5234 28.2734C26.5234 28.1462 26.5577 28.0947 26.5879 28.0645L25.8808 27.3574C25.6298 27.6084 25.5234 27.9319 25.5234 28.2734H26.5234ZM26.5879 28.0645C26.6411 28.0113 26.6803 28 26.7266 28V27C26.3978 27 26.1089 27.1293 25.8808 27.3574L26.5879 28.0645ZM26.7266 28H28.2734V27H26.7266V28ZM28.2734 28C28.3197 28 28.3589 28.0113 28.4121 28.0645L29.1192 27.3574C28.8911 27.1293 28.6022 27 28.2734 27V28ZM28.4121 28.0645C28.4423 28.0947 28.4766 28.1462 28.4766 28.2734H29.4766C29.4766 27.9319 29.3702 27.6084 29.1192 27.3574L28.4121 28.0645ZM28.4766 28.2734C28.4766 28.3197 28.4652 28.3589 28.4121 28.4121L29.1192 29.1192C29.3473 28.8911 29.4766 28.6022 29.4766 28.2734H28.4766ZM28.4121 28.4121C28.3589 28.4652 28.3197 28.4766 28.2734 28.4766V29.4766C28.6022 29.4766 28.8911 29.3473 29.1192 29.1192L28.4121 28.4121ZM28.2734 25.5234H26.7266V26.5234H28.2734V25.5234ZM26.7266 25.5234C26.6803 25.5234 26.6411 25.5121 26.5879 25.4589L25.8808 26.1661C26.1089 26.3941 26.3978 26.5234 26.7266 26.5234V25.5234ZM26.6344 25.5125C26.5422 25.3896 26.5234 25.3048 26.5234 25.25H25.5234C25.5234 25.5702 25.6453 25.8604 25.8344 26.1125L26.6344 25.5125ZM26.5234 25.25C26.5234 25.2038 26.5348 25.1645 26.5879 25.1114L25.8808 24.4043C25.6527 24.6323 25.5234 24.9212 25.5234 25.25H26.5234ZM26.6344 25.0578C26.6733 25.0059 26.7006 24.9869 26.711 24.981C26.7181 24.9769 26.7205 24.9766 26.7266 24.9766V23.9766C26.3426 23.9766 26.0432 24.1793 25.8344 24.4578L26.6344 25.0578ZM26.7266 24.9766H28.2734V23.9766H26.7266V24.9766ZM28.2734 24.9766C28.2795 24.9766 28.2819 24.9769 28.289 24.981C28.2994 24.9869 28.3267 25.0059 28.3656 25.0578L29.1656 24.4578C28.9568 24.1793 28.6574 23.9766 28.2734 23.9766V24.9766ZM28.4121 25.1114C28.4652 25.1645 28.4766 25.2038 28.4766 25.25H29.4766C29.4766 24.9212 29.3473 24.6323 29.1192 24.4043L28.4121 25.1114ZM28.4766 25.25C28.4766 25.3048 28.4578 25.3896 28.3656 25.5125L29.1656 26.1125C29.3547 25.8604 29.4766 25.5702 29.4766 25.25H28.4766ZM28.4121 25.4589C28.3589 25.5121 28.3197 25.5234 28.2734 25.5234V26.5234C28.6022 26.5234 28.8911 26.3941 29.1192 26.1661L28.4121 25.4589ZM28.2734 22.5H26.7266V23.5H28.2734V22.5ZM26.7266 22.5C26.6803 22.5 26.6411 22.4887 26.5879 22.4355L25.8808 23.1426C26.1089 23.3707 26.3978 23.5 26.7266 23.5V22.5ZM26.5879 22.4355C26.5577 22.4053 26.5234 22.3538 26.5234 22.2266H25.5234C25.5234 22.5681 25.6298 22.8916 25.8808 23.1426L26.5879 22.4355ZM26.5234 22.2266C26.5234 22.1803 26.5348 22.1411 26.5879 22.0879L25.8808 21.3808C25.6527 21.6089 25.5234 21.8978 25.5234 22.2266H26.5234ZM26.5879 22.0879C26.6411 22.0348 26.6803 22.0234 26.7266 22.0234V21.0234C26.3978 21.0234 26.1089 21.1527 25.8808 21.3808L26.5879 22.0879ZM26.7266 22.0234H28.2734V21.0234H26.7266V22.0234ZM28.2734 22.0234C28.3197 22.0234 28.3589 22.0348 28.4121 22.0879L29.1192 21.3808C28.8911 21.1527 28.6022 21.0234 28.2734 21.0234V22.0234ZM28.4121 22.0879C28.4652 22.1411 28.4766 22.1803 28.4766 22.2266H29.4766C29.4766 21.8978 29.3473 21.6089 29.1192 21.3808L28.4121 22.0879ZM28.4766 22.2266C28.4766 22.3538 28.4423 22.4053 28.4121 22.4355L29.1192 23.1426C29.3702 22.8916 29.4766 22.5681 29.4766 22.2266H28.4766ZM28.4121 22.4355C28.3589 22.4887 28.3197 22.5 28.2734 22.5V23.5C28.6022 23.5 28.8911 23.3707 29.1192 23.1426L28.4121 22.4355Z" fill="white"/>
</g>
<defs>
<filter id="filter0_d_11_6" x="4.02344" y="8.02344" width="37.9531" height="37.9531" filterUnits="userSpaceOnUse" color-interpolation-filters="sRGB">
<feFlood flood-opacity="0" result="BackgroundImageFix"/>
<feColorMatrix in="SourceAlpha" type="matrix" values="0 0 0 0 0 0 0 0 0 0 0 0 0 0 0 0 0 0 127 0" result="hardAlpha"/>
<feOffset dy="4"/>
<feGaussianBlur stdDeviation="2"/>
<feComposite in2="hardAlpha" operator="out"/>
<feColorMatrix type="matrix" values="0 0 0 0 0 0 0 0 0 0 0 0 0 0 0 0 0 0 0.25 0"/>
<feBlend mode="normal" in2="BackgroundImageFix" result="effect1_dropShadow_11_6"/>
<feBlend mode="normal" in="SourceGraphic" in2="effect1_dropShadow_11_6" result="shape"/>
</filter>
</defs>
</svg>
