<svg width="46" height="48" viewBox="0 0 46 48" fill="none" xmlns="http://www.w3.org/2000/svg">
<path d="M37.375 46H8.625C3.86113 46 0 42.1389 0 37.375V8.625C0 3.86113 3.86113 0 8.625 0H37.375C42.1389 0 46 3.86113 46 8.625V37.375C46 42.1389 42.1389 46 37.375 46Z" fill="#44BE0A"/>
<g filter="url(#filter0_d_11_21)">
<path d="M32.4766 35.0234V39.4531H29.5234V35.0234H25.0234V32H29.5234V27.5H32.4766V32H36.9766V35.0234H32.4766ZM23.8281 38.8906C23.7344 38.9375 23.4531 39.0547 22.9844 39.2422C22.5625 39.3828 22.2344 39.4766 22 39.5234C18.1562 38.5859 14.9453 36.4062 12.3672 32.9844C9.78906 29.5156 8.5 25.6953 8.5 21.5234V12.5234L22 6.47656L35.5 12.5234V21.5234C35.5 22.7891 35.3594 24.1016 35.0781 25.4609C33.8594 24.8047 32.5 24.4766 31 24.4766C28.5156 24.4766 26.3828 25.3672 24.6016 27.1484C22.8672 28.8828 22 30.9922 22 33.4766C22 35.4922 22.6094 37.2969 23.8281 38.8906Z" fill="#44BE0A"/>
<path d="M32.4766 35.0234V33.0234H30.4766V35.0234H32.4766ZM32.4766 39.4531V41.4531H34.4766V39.4531H32.4766ZM29.5234 39.4531H27.5234V41.4531H29.5234V39.4531ZM29.5234 35.0234H31.5234V33.0234H29.5234V35.0234ZM25.0234 35.0234H23.0234V37.0234H25.0234V35.0234ZM25.0234 32V30H23.0234V32H25.0234ZM29.5234 32V34H31.5234V32H29.5234ZM29.5234 27.5V25.5H27.5234V27.5H29.5234ZM32.4766 27.5H34.4766V25.5H32.4766V27.5ZM32.4766 32H30.4766V34H32.4766V32ZM36.9766 32H38.9766V30H36.9766V32ZM36.9766 35.0234V37.0234H38.9766V35.0234H36.9766ZM23.8281 38.8906L24.7226 40.6795L26.8865 39.5975L25.4168 37.6757L23.8281 38.8906ZM22.9844 39.2422L23.6168 41.1396L23.6726 41.121L23.7272 41.0991L22.9844 39.2422ZM22 39.5234L21.5261 41.4665L21.9571 41.5716L22.3922 41.4846L22 39.5234ZM12.3672 32.9844L10.762 34.1774L10.7698 34.1879L12.3672 32.9844ZM8.5 12.5234L7.68243 10.6982L6.5 11.2278V12.5234H8.5ZM22 6.47656L22.8176 4.6513L22 4.2851L21.1824 4.6513L22 6.47656ZM35.5 12.5234H37.5V11.2278L36.3176 10.6982L35.5 12.5234ZM35.0781 25.4609L34.1299 27.2219L36.4929 28.4943L37.0366 25.8661L35.0781 25.4609ZM30.4766 35.0234V39.4531H34.4766V35.0234H30.4766ZM32.4766 37.4531H29.5234V41.4531H32.4766V37.4531ZM31.5234 39.4531V35.0234H27.5234V39.4531H31.5234ZM29.5234 33.0234H25.0234V37.0234H29.5234V33.0234ZM27.0234 35.0234V32H23.0234V35.0234H27.0234ZM25.0234 34H29.5234V30H25.0234V34ZM31.5234 32V27.5H27.5234V32H31.5234ZM29.5234 29.5H32.4766V25.5H29.5234V29.5ZM30.4766 27.5V32H34.4766V27.5H30.4766ZM32.4766 34H36.9766V30H32.4766V34ZM34.9766 32V35.0234H38.9766V32H34.9766ZM36.9766 33.0234H32.4766V37.0234H36.9766V33.0234ZM22.9337 37.1018C22.9574 37.0899 22.9601 37.0896 22.921 37.1066C22.8887 37.1208 22.8418 37.1408 22.7776 37.1675C22.6496 37.2209 22.472 37.2931 22.2416 37.3852L23.7272 41.0991C24.1576 40.927 24.5355 40.773 24.7226 40.6795L22.9337 37.1018ZM22.3519 37.3448C21.9541 37.4774 21.7191 37.54 21.6078 37.5623L22.3922 41.4846C22.7496 41.4131 23.1709 41.2882 23.6168 41.1396L22.3519 37.3448ZM22.4739 37.5804C19.1171 36.7617 16.2895 34.8667 13.9646 31.7809L10.7698 34.1879C13.6011 37.9458 17.1954 40.4102 21.5261 41.4665L22.4739 37.5804ZM13.9724 31.7913C11.6407 28.6542 10.5 25.2493 10.5 21.5234H6.5C6.5 26.1414 7.93738 30.377 10.762 34.1774L13.9724 31.7913ZM10.5 21.5234V12.5234H6.5V21.5234H10.5ZM9.31757 14.3487L22.8176 8.30183L21.1824 4.6513L7.68243 10.6982L9.31757 14.3487ZM21.1824 8.30183L34.6824 14.3487L36.3176 10.6982L22.8176 4.6513L21.1824 8.30183ZM33.5 12.5234V21.5234H37.5V12.5234H33.5ZM33.5 21.5234C33.5 22.6406 33.3759 23.817 33.1196 25.0557L37.0366 25.8661C37.3428 24.3862 37.5 22.9376 37.5 21.5234H33.5ZM36.0263 23.7C34.4921 22.8739 32.8026 22.4766 31 22.4766V26.4766C32.1974 26.4766 33.2266 26.7355 34.1299 27.2219L36.0263 23.7ZM31 22.4766C27.9769 22.4766 25.3378 23.5838 23.1873 25.7342L26.0158 28.5627C27.4278 27.1506 29.0543 26.4766 31 26.4766V22.4766ZM23.1873 25.7342C21.0725 27.8491 20 30.4694 20 33.4766H24C24 31.5149 24.6619 29.9166 26.0158 28.5627L23.1873 25.7342ZM20 33.4766C20 35.9291 20.7526 38.1612 22.2394 40.1055L25.4168 37.6757C24.4662 36.4326 24 35.0553 24 33.4766H20Z" fill="white"/>
</g>
<defs>
<filter id="filter0_d_11_21" x="4.5" y="6.47656" width="36.4766" height="41.0469" filterUnits="userSpaceOnUse" color-interpolation-filters="sRGB">
<feFlood flood-opacity="0" result="BackgroundImageFix"/>
<feColorMatrix in="SourceAlpha" type="matrix" values="0 0 0 0 0 0 0 0 0 0 0 0 0 0 0 0 0 0 127 0" result="hardAlpha"/>
<feOffset dy="4"/>
<feGaussianBlur stdDeviation="2"/>
<feComposite in2="hardAlpha" operator="out"/>
<feColorMatrix type="matrix" values="0 0 0 0 0 0 0 0 0 0 0 0 0 0 0 0 0 0 0.25 0"/>
<feBlend mode="normal" in2="BackgroundImageFix" result="effect1_dropShadow_11_21"/>
<feBlend mode="normal" in="SourceGraphic" in2="effect1_dropShadow_11_21" result="shape"/>
</filter>
</defs>
</svg>
