<svg width="42" height="42" viewBox="0 0 42 42" fill="none" xmlns="http://www.w3.org/2000/svg">
<rect x="0.5" y="0.5" width="41" height="41" rx="9.5" stroke="#4DADF9"/>
<path d="M27.4283 20.9998C27.0338 20.9998 26.714 21.3196 26.714 21.7141V28.8569C26.714 29.2514 26.3942 29.5711 25.9997 29.5711H13.1428C12.7483 29.5711 12.4285 29.2514 12.4285 28.8569V14.5714C12.4285 14.1769 12.7483 13.8571 13.1428 13.8571H21.7141C22.1086 13.8571 22.4284 13.5373 22.4284 13.1428C22.4284 12.7483 22.1086 12.4285 21.7141 12.4285H13.1428C11.9594 12.4285 11 13.3879 11 14.5714V28.8569C11 30.0403 11.9594 30.9997 13.1428 30.9997H25.9998C27.1832 30.9997 28.1426 30.0403 28.1426 28.8569V21.7141C28.1426 21.3196 27.8228 20.9998 27.4283 20.9998Z" fill="#4DADF9"/>
<path d="M30.1993 11.801C29.6865 11.288 28.9908 10.9999 28.2655 11C27.5397 10.9979 26.8434 11.2865 26.332 11.8014L16.9235 21.2091C16.8454 21.2878 16.7865 21.3833 16.7514 21.4884L15.3228 25.7741C15.1981 26.1483 15.4005 26.5528 15.7748 26.6774C15.8474 26.7016 15.9234 26.714 15.9999 26.7141C16.0766 26.7139 16.1528 26.7016 16.2256 26.6776L20.5113 25.2491C20.6166 25.2139 20.7122 25.1548 20.7906 25.0763L30.199 15.6678C31.2669 14.6001 31.267 12.8688 30.1993 11.801Z" fill="#4DADF9"/>
</svg>
