<svg width="42" height="42" viewBox="0 0 42 42" fill="none" xmlns="http://www.w3.org/2000/svg">
<rect width="42" height="42" rx="10" fill="#F7F7FE"/>
<path fill-rule="evenodd" clip-rule="evenodd" d="M13.7071 12.2929C13.3166 11.9024 12.6834 11.9024 12.2929 12.2929C11.9024 12.6834 11.9024 13.3166 12.2929 13.7071L19.6939 21.1081L12.2929 28.5091C11.9024 28.8996 11.9024 29.5328 12.2929 29.9233C12.6834 30.3138 13.3166 30.3138 13.7071 29.9233L21.1081 22.5223L28.5091 29.9233C28.8996 30.3138 29.5328 30.3138 29.9233 29.9233C30.3138 29.5328 30.3138 28.8996 29.9233 28.5091L22.5223 21.1081L29.9233 13.7071C30.3139 13.3166 30.3139 12.6834 29.9233 12.2929C29.5328 11.9024 28.8996 11.9024 28.5091 12.2929L21.1081 19.6939L13.7071 12.2929Z" fill="#0F0F31"/>
</svg>
