<svg width="16" height="18" viewBox="0 0 16 18" fill="none" xmlns="http://www.w3.org/2000/svg">
<path fill-rule="evenodd" clip-rule="evenodd" d="M5.66595 15.6887C5.86088 15.5272 6.14981 15.5543 6.3113 15.7493C6.51444 15.9945 6.75093 16.1834 7.00446 16.3102C7.25755 16.4367 7.52473 16.5 7.79168 16.5C8.05863 16.5 8.32581 16.4367 8.5789 16.3102C8.83243 16.1834 9.06892 15.9945 9.27206 15.7493C9.43355 15.5543 9.72248 15.5272 9.91741 15.6887C10.1123 15.8502 10.1394 16.1391 9.97796 16.3341C9.69959 16.6701 9.36444 16.9423 8.98885 17.1301C8.6128 17.3181 8.2057 17.4167 7.79168 17.4167C7.37766 17.4167 6.97055 17.3181 6.59451 17.1301C6.21892 16.9423 5.88376 16.6701 5.60539 16.3341C5.44391 16.1391 5.47102 15.8502 5.66595 15.6887Z" fill="black"/>
<path fill-rule="evenodd" clip-rule="evenodd" d="M7.79159 0C8.04472 0 8.24992 0.205203 8.24992 0.458333V1.375C8.24992 1.62813 8.04472 1.83333 7.79159 1.83333C7.53845 1.83333 7.33325 1.62813 7.33325 1.375V0.458333C7.33325 0.205203 7.53845 0 7.79159 0Z" fill="black"/>
<path fill-rule="evenodd" clip-rule="evenodd" d="M1.83333 6.87501C1.83333 3.58431 4.50097 0.916672 7.79167 0.916672C11.0824 0.916672 13.75 3.58431 13.75 6.87501V10.4335C13.75 10.888 14.0068 11.3035 14.4133 11.5067L14.7036 11.6519C15.2428 11.9215 15.5833 12.4725 15.5833 13.0753C15.5833 13.9542 14.8708 14.6667 13.9919 14.6667H1.5914C0.712492 14.6667 0 13.9542 0 13.0753C0 12.4725 0.340562 11.9215 0.879702 11.6519L1.17003 11.5067C1.57655 11.3035 1.83333 10.888 1.83333 10.4335V6.87501ZM7.79167 1.83334C5.00723 1.83334 2.75 4.09057 2.75 6.87501V10.4335C2.75 11.2352 2.29704 11.9681 1.57997 12.3266L1.28965 12.4718C1.06106 12.5861 0.916667 12.8197 0.916667 13.0753C0.916667 13.4479 1.21875 13.75 1.5914 13.75H13.9919C14.3646 13.75 14.6667 13.4479 14.6667 13.0753C14.6667 12.8197 14.5223 12.5861 14.2937 12.4718L14.0034 12.3266C13.2863 11.9681 12.8333 11.2352 12.8333 10.4335V6.87501C12.8333 4.09057 10.5761 1.83334 7.79167 1.83334Z" fill="black"/>
</svg>
