<svg width="45" height="42" viewBox="0 0 45 42" fill="none" xmlns="http://www.w3.org/2000/svg">
<path d="M35 0H10C4.47715 0 0 4.47715 0 10V32C0 37.5228 4.47715 42 10 42H35C40.5228 42 45 37.5228 45 32V10C45 4.47715 40.5228 0 35 0Z" fill="#FFBB38"/>
<path fill-rule="evenodd" clip-rule="evenodd" d="M24.1418 11C24.1418 10.4477 23.6941 10 23.1418 10C22.5896 10 22.1418 10.4477 22.1418 11V20.1419H13C12.4477 20.1419 12 20.5896 12 21.1419C12 21.6942 12.4477 22.1419 13 22.1419H22.1418V31.2837C22.1418 31.836 22.5896 32.2837 23.1418 32.2837C23.6941 32.2837 24.1418 31.836 24.1418 31.2837V22.1419H33.2837C33.836 22.1419 34.2837 21.6942 34.2837 21.1419C34.2837 20.5896 33.836 20.1419 33.2837 20.1419H24.1418V11Z" fill="white"/>
</svg>
