<svg width="45" height="42" viewBox="0 0 45 42" fill="none" xmlns="http://www.w3.org/2000/svg">
<rect width="45" height="42" rx="10" fill="#FE7362"/>
<path fill-rule="evenodd" clip-rule="evenodd" d="M23.1418 11C23.1418 10.4477 22.6941 10 22.1418 10C21.5896 10 21.1418 10.4477 21.1418 11V20.1419H12C11.4477 20.1419 11 20.5896 11 21.1419C11 21.6942 11.4477 22.1419 12 22.1419H21.1418V31.2837C21.1418 31.836 21.5896 32.2837 22.1418 32.2837C22.6941 32.2837 23.1418 31.836 23.1418 31.2837V22.1419H32.2837C32.836 22.1419 33.2837 21.6942 33.2837 21.1419C33.2837 20.5896 32.836 20.1419 32.2837 20.1419H23.1418V11Z" fill="white"/>
</svg>
