<svg width="42" height="42" viewBox="0 0 42 42" fill="none" xmlns="http://www.w3.org/2000/svg">
<rect width="42" height="42" rx="10" fill="#4333A2"/>
<path d="M18.5156 15.5156V18.5156H15.5156V15.5156H18.5156ZM20.0156 14.0156H14.0156V20.0156H20.0156V14.0156ZM18.5156 23.4844V26.4844H15.5156V23.4844H18.5156ZM20.0156 21.9844H14.0156V27.9844H20.0156V21.9844ZM26.4844 15.5156V18.5156H23.4844V15.5156H26.4844ZM27.9844 14.0156H21.9844V20.0156H27.9844V14.0156ZM21.9844 21.9844H23.4844V23.4844H21.9844V21.9844ZM23.4844 23.4844H24.9844V24.9844H23.4844V23.4844ZM24.9844 21.9844H26.4844V23.4844H24.9844V21.9844ZM21.9844 24.9844H23.4844V26.4844H21.9844V24.9844ZM23.4844 26.4844H24.9844V27.9844H23.4844V26.4844ZM24.9844 24.9844H26.4844V26.4844H24.9844V24.9844ZM26.4844 23.4844H27.9844V24.9844H26.4844V23.4844ZM26.4844 26.4844H27.9844V27.9844H26.4844V26.4844ZM30.9844 15.9844H29.0156V12.9844H26.0156V11.0156H30.9844V15.9844ZM30.9844 30.9844V26.0156H29.0156V29.0156H26.0156V30.9844H30.9844ZM11.0156 30.9844H15.9844V29.0156H12.9844V26.0156H11.0156V30.9844ZM11.0156 11.0156V15.9844H12.9844V12.9844H15.9844V11.0156H11.0156Z" fill="white"/>
</svg>
