<svg width="19" height="19" viewBox="0 0 19 19" fill="none" xmlns="http://www.w3.org/2000/svg">
<path fill-rule="evenodd" clip-rule="evenodd" d="M1.70711 0.292893C1.31658 -0.0976311 0.683417 -0.0976311 0.292893 0.292893C-0.0976311 0.683417 -0.0976311 1.31658 0.292893 1.70711L7.6939 9.10811L0.292901 16.5091C-0.0976245 16.8996 -0.0976245 17.5328 0.292901 17.9233C0.683425 18.3138 1.31659 18.3138 1.70711 17.9233L9.10811 10.5223L16.5091 17.9233C16.8996 18.3138 17.5328 18.3138 17.9233 17.9233C18.3138 17.5328 18.3138 16.8996 17.9233 16.5091L10.5223 9.10811L17.9233 1.70711C18.3139 1.31658 18.3139 0.683418 17.9233 0.292893C17.5328 -0.0976311 16.8996 -0.0976311 16.5091 0.292893L9.10811 7.6939L1.70711 0.292893Z"
    fill="#0F0F31"/>
</svg>
